<?xml version="1.0" encoding="UTF-8" standalone="no"?>
<svg width="87px" height="30px" viewBox="0 0 87 30" version="1.1" xmlns="http://www.w3.org/2000/svg" xmlns:xlink="http://www.w3.org/1999/xlink" xmlns:sketch="http://www.bohemiancoding.com/sketch/ns">
    <title>Social Media Icons</title>
    <description>Created with Sketch (http://www.bohemiancoding.com/sketch)</description>
    <defs></defs>
    <g id="Page 1" fill="rgb(206,206,206)" fill-rule="evenodd">
        <path d="M0.0350000001,29.7080002 L28.8169996,29.7080002 L28.7819996,1 L0,1 L0.0350000001,29.7080002 L0.0350000001,29.7080002 Z M4.26400391,15.5920029 C5.14700392,15.3750029 7.68400398,15.2540029 8.58200375,15.2560029 C8.38100374,14.6610028 8.29100374,13.9810029 8.29100374,13.2190029 C8.29100374,11.868003 8.71100372,11.360003 9.27700374,10.6380028 C8.84300375,9.09800288 9.43100374,8.04600284 9.43100374,8.04600284 C9.43100374,8.04600284 10.3390037,7.85800284 12.0560037,9.08700284 C12.9880037,8.69000283 15.4680037,8.65400285 16.6440036,8.99900284 C17.3650036,8.52100286 18.6830036,7.84700289 19.2140035,8.03600284 C19.3590035,8.26800284 19.6690035,8.94300285 19.4030035,10.4280028 C19.5830035,10.7540028 20.5220034,11.4480028 20.5240035,13.4080028 C20.5100035,14.1310028 20.4340035,14.7420028 20.2950035,15.2580028 C22.5330035,15.2400028 23.8500036,15.4250028 24.7580034,15.5910029 C24.7930034,15.6000029 24.8190034,15.6330029 24.8130034,15.6700029 C24.8050034,15.7010029 24.7780034,15.7250029 24.7470034,15.7250029 C24.7430034,15.7250029 24.7370034,15.7250029 24.7350034,15.7230029 C23.8270034,15.5560029 22.5100035,15.3710029 20.2560033,15.3930028 C20.2170033,15.5240028 20.1720033,15.6470028 20.1230033,15.7680028 C20.8910033,15.7920028 22.9980033,15.8740028 24.7130034,16.3990028 C24.7480034,16.4100028 24.7680034,16.4470028 24.7580034,16.4820028 C24.7480034,16.5100028 24.7230034,16.5290028 24.6960034,16.5290028 C24.6880034,16.5290028 24.6820034,16.5290028 24.6750034,16.5270028 C22.9350034,15.9950028 20.7840034,15.9220028 20.0680035,15.8970028 C19.5130035,17.1150029 18.4410036,17.6540028 16.7540037,17.9060029 L16.7540037,17.9070029 C16.5470037,17.9370029 16.3300037,17.9650029 16.1060037,17.9880029 C16.7760037,18.4100029 16.9670037,18.9390029 16.9670037,20.3670028 C16.9670037,21.7960029 16.9470037,21.9880029 16.9510037,22.3160028 C16.9590037,22.8550028 17.7500037,23.1150029 17.7210036,23.2880028 C17.6900036,23.4610028 17.0590036,23.4340028 16.7640036,23.3310028 C15.9260036,23.0380028 16.0100036,22.3420028 16.0100036,22.3420028 L15.9830036,20.4320029 C15.9830036,20.4320029 16.0400036,19.4030028 15.6570036,19.4030028 L15.6570036,22.5320028 C15.6570036,23.2120028 16.1370036,23.4190028 16.1370036,23.6700028 C16.1370036,24.1030028 15.2640036,23.6290028 14.9980035,23.3580028 C14.5900035,22.9490028 14.6370035,22.0790027 14.6440035,21.3930027 C14.6540035,20.7290028 14.6380035,19.2760026 14.6380035,19.2760026 L14.3630035,19.2820026 C14.3630035,19.2820026 14.4760035,22.4550027 14.2170035,23.0320026 C13.8810035,23.7740026 12.8670035,24.0300027 12.8670035,23.6900026 C12.8670035,23.4630026 13.1150035,23.5370026 13.2540035,23.0260026 C13.3730035,22.5930026 13.3320035,19.3600028 13.3320035,19.3600028 C13.3320035,19.3600028 13.0080035,19.5510028 13.0080035,20.1580027 C13.0080035,20.4340027 13.0000035,22.0180027 13.0000035,22.4890028 C13.0000035,23.0830028 12.1580035,23.4200028 11.7540034,23.4200028 C11.5490035,23.4200028 11.2930035,23.4100028 11.2930035,23.3010028 C11.2930035,23.0270028 12.0630034,22.8660028 12.0630034,22.2960028 C12.0630034,21.8010028 12.0530034,20.5280028 12.0530034,20.5280028 C12.0530034,20.5280028 11.6640034,20.5940028 11.1120034,20.5940028 C9.71600342,20.5940028 9.27200342,19.7040028 9.06300342,19.2050028 C8.79000342,18.5570028 8.43400342,18.2510028 8.05900348,18.0070028 C7.82700348,17.8580028 7.77400348,17.6820028 8.04100348,17.6300028 C9.27700342,17.3990028 9.59400345,19.0320027 10.4180036,19.2930028 C11.0080035,19.4790028 11.7640035,19.3980028 12.1410036,19.1540028 C12.1900036,18.6540028 12.5510036,18.2220028 12.8500036,17.9960028 C12.8320036,17.9940028 12.8130036,17.9920028 12.7930036,17.9900028 C10.7290037,17.7810028 9.50000363,17.0530028 8.86100369,15.8930029 C6.66600376,15.9460029 5.4200037,16.2570029 4.50600367,16.4860029 C4.44200367,16.5030029 4.37500367,16.5190029 4.31300367,16.5350029 C4.30700367,16.5360029 4.30100367,16.5370029 4.29700367,16.5370029 C4.26600367,16.5370029 4.24000367,16.5170029 4.23300366,16.4860029 C4.22300366,16.4510029 4.24700366,16.4140029 4.28200366,16.4050029 C4.34300366,16.3890029 4.40900367,16.3740029 4.47500367,16.3580029 C5.38500369,16.1290029 6.62300367,15.8190029 8.79300351,15.7610029 C8.7320035,15.6410029 8.6780035,15.5180029 8.6290035,15.3890029 C7.78700349,15.3820029 5.18800352,15.5020029 4.29700372,15.7220029 C4.29100372,15.7250029 4.28500372,15.7250029 4.28100372,15.7250029 C4.25000372,15.7250029 4.22200372,15.7040029 4.21500372,15.6740029 C4.20699707,15.6379929 4.22900024,15.6019974 4.26400391,15.5920029 L4.26400391,15.5920029 Z M4.26400391,15.5920029" id="Shape" fill="rgb(0,111,184)"></path>
        <path d="M28.8169996,0.954006195 L28.8169996,29.753994 L57.6169874,29.753994 L57.6169874,0.954006195 L28.8169996,0.954006195 L28.8169996,0.954006195 Z M49.8209974,12.628994 C49.8269974,12.761994 49.8289974,12.893994 49.8289974,13.027994 C49.8289974,17.1079939 46.7239974,21.8139942 41.044997,21.8139942 C39.299997,21.8139942 37.6789971,21.3039942 36.3119972,20.4259942 C36.5529972,20.4539942 36.7979972,20.4679942 37.0479972,20.4679942 C38.4939972,20.4679942 39.8259973,19.9759942 40.8829972,19.1469942 C39.5319973,19.1239942 38.3909971,18.2299942 37.9979972,17.0029942 C38.1859972,17.0399942 38.3809972,17.0599942 38.5799973,17.0599942 C38.8599973,17.0599942 39.1329972,17.0209942 39.3929973,16.9509942 C37.9799973,16.6669942 36.9139972,15.4189942 36.9139972,13.9239942 L36.9139972,13.8849942 C37.3309972,14.1139942 37.8079972,14.2549942 38.3139972,14.2709942 C37.4839972,13.7149942 36.9389972,12.7719943 36.9389972,11.7009943 C36.9389972,11.1349943 37.0899972,10.6049944 37.3579972,10.1469943 C38.8799971,12.0159942 41.1559973,13.2449943 43.721997,13.3759944 C43.668997,13.1489944 43.641997,12.9119944 43.641997,12.6709944 C43.641997,10.9649944 45.024997,9.58299434 46.7299971,9.58299434 C47.6179971,9.58299434 48.4199971,9.95899433 48.9829971,10.5589943 C49.6879971,10.4199944 50.3469971,10.1629944 50.9449971,9.80899435 C50.7139971,10.5299944 50.2249971,11.1349943 49.5869971,11.5169943 C50.2119971,11.4449943 50.807997,11.2769943 51.3599971,11.0319943 C50.9459974,11.6499901 50.4250013,12.1929893 49.8209974,12.628994 L49.8209974,12.628994 Z M49.8209974,12.628994" id="Shape" fill="rgb(0,156,219)"></path>
        <path d="M57.6169874,29.8055 L86.457987,29.8055 L86.457987,0.902500153 L57.6169874,0.902500153 L57.6169874,29.8055 L57.6169874,29.8055 Z M67.8039991,12.2495003 L69.5759991,12.2495003 L69.5759991,9.80950022 C69.5759991,9.36250022 69.4859991,6.37650013 73.3079992,6.37650013 L76.0059991,6.37650013 L76.0059991,9.48250008 L74.0219992,9.48250008 C73.6289991,9.48250008 73.2319991,9.89350009 73.2319991,10.1985001 L73.2319991,12.2385001 L76.0019991,12.2385001 C75.8909991,13.8025001 75.6629991,15.2334999 75.6629991,15.2334999 L73.2189991,15.2334999 L73.2189991,24.1004996 L69.5759992,24.1004996 L69.5759992,15.2334999 L67.8039993,15.2334999 L67.8039993,12.2495003 L67.8039991,12.2495003 Z M67.8039991,12.2495003" id="Shape" fill="rgb(29,68,135)"></path>
    </g>
</svg>